<?xml version="1.0" standalone="no"?>
<!DOCTYPE svg PUBLIC "-//W3C//DTD SVG 20010904//EN"
 "http://www.w3.org/TR/2001/REC-SVG-20010904/DTD/svg10.dtd">
<svg version="1.0" xmlns="http://www.w3.org/2000/svg"
 width="300.000000pt" height="300.000000pt" viewBox="0 0 300.000000 300.000000"
 preserveAspectRatio="xMidYMid meet">
<metadata>
Created by potrace 1.10, written by Peter Selinger 2001-2011
</metadata>
<g transform="translate(0.000000,300.000000) scale(0.100000,-0.100000)"
fill="#000000" stroke="none">
<path d="M1775 2327 c-35 -20 -55 -43 -90 -102 -9 -15 -17 -16 -69 -6 -202 37
-397 -25 -526 -167 -194 -214 -188 -502 15 -708 209 -212 556 -220 774 -19 71
66 134 168 155 251 33 127 11 280 -54 385 l-31 51 40 43 c54 58 68 113 46 172
-42 110 -162 156 -260 100z m165 -29 c52 -36 72 -69 72 -122 0 -27 -7 -58 -17
-72 -42 -64 -145 -84 -213 -42 -44 27 -76 96 -68 144 7 35 54 90 90 104 41 17
102 11 136 -12z m-277 -123 c28 -10 47 -23 47 -32 0 -27 41 -83 73 -100 17 -8
48 -16 69 -16 31 0 44 -6 70 -35 57 -66 98 -185 98 -287 0 -223 -167 -427
-392 -480 -184 -43 -372 9 -501 138 -275 276 -145 715 243 822 70 19 226 14
293 -10z"/>
<path d="M1809 2247 c-28 -19 -35 -30 -37 -65 -4 -58 29 -92 92 -92 37 0 48 5
70 31 29 34 32 55 14 94 -13 28 -55 55 -86 55 -10 0 -34 -10 -53 -23z m102
-41 c19 -41 4 -74 -36 -82 -29 -5 -39 -2 -55 16 -35 41 -10 90 46 90 27 0 37
-6 45 -24z"/>
<path d="M1376 2005 c-79 -30 -145 -92 -184 -175 -21 -43 -27 -70 -27 -126 0
-62 5 -80 35 -140 58 -114 165 -178 300 -178 36 0 88 8 115 17 178 60 271 263
194 427 -31 66 -94 131 -158 162 -58 29 -213 36 -275 13z m237 -34 c70 -24
129 -78 163 -147 22 -46 25 -62 21 -126 -5 -82 -7 -91 -29 -133 -53 -98 -180
-158 -304 -144 -159 19 -264 132 -264 284 0 85 23 141 81 197 88 85 210 111
332 69z"/>
<path d="M971 1179 c-20 -19 -21 -27 -15 -77 26 -213 209 -402 434 -448 66
-13 215 -7 271 11 190 62 340 222 378 403 15 74 14 88 -11 112 -18 17 -35 20
-105 20 -70 0 -86 -3 -103 -20 -11 -11 -20 -29 -20 -40 0 -46 -42 -129 -84
-168 -80 -73 -172 -101 -272 -83 -119 22 -220 115 -244 226 -17 77 -29 85
-125 85 -69 0 -85 -3 -104 -21z m196 -49 c4 -94 82 -199 186 -246 53 -25 75
-29 147 -29 71 0 94 4 140 26 31 14 72 40 92 58 47 41 98 142 98 193 l0 38 95
0 95 0 0 -28 c0 -42 -27 -136 -54 -190 -56 -110 -182 -214 -304 -252 -88 -27
-236 -27 -324 0 -172 53 -316 210 -348 379 -18 96 -22 91 83 91 l93 0 1 -40z"/>
</g>
</svg>
