<?xml version="1.0" encoding="UTF-8"?>
<svg version="1.1" xmlns="http://www.w3.org/2000/svg" width="500" height="500">
<path d="M0 0 C165 0 330 0 500 0 C500 165 500 330 500 500 C335 500 170 500 0 500 C0 335 0 170 0 0 Z " fill="#FE5500" transform="translate(0,0)"/>
<path d="M0 0 C2.75 2.5 2.75 2.5 5 5 C5.556875 5.495 6.11375 5.99 6.6875 6.5 C10.93413322 11.35329511 10.41158557 17.54084035 10.31640625 23.61328125 C9.67946733 30.43088668 6.13514587 34.58138611 1 39 C-5.03921569 43 -5.03921569 43 -8 43 C-6.6897432 46.64816598 -5.09040505 49.4216294 -2.75 52.5 C10.56908702 71.11897372 13.15327717 92.14984382 10.73193359 114.47119141 C8.07930078 130.45077152 -0.93776815 144.56001401 -12 156 C-12.79148437 156.82113281 -13.58296875 157.64226562 -14.3984375 158.48828125 C-25.09714611 168.77823522 -37.76164053 175.18779408 -52 179 C-52.65427979 179.18473877 -53.30855957 179.36947754 -53.98266602 179.55981445 C-60.69192299 181.28404524 -67.28886164 181.3461191 -74.1875 181.3125 C-75.38987305 181.30686035 -76.59224609 181.3012207 -77.83105469 181.29541016 C-101.39915827 180.97277822 -121.9029919 172.31214192 -138.55664062 155.52099609 C-155.97685735 137.16376501 -162.00963377 116.27135843 -161.390625 91.375 C-161.05363629 84.06362461 -159.75442042 77.81456956 -157 71 C-156.69964844 70.10925781 -156.39929688 69.21851563 -156.08984375 68.30078125 C-153.77293804 61.75125991 -150.12004747 56.54333659 -146 51 C-145.1872662 49.77098791 -144.37474105 48.5418378 -143.5625 47.3125 C-140.60140318 43.21472407 -136.92543024 40.1494731 -133 37 C-132.10023438 36.26394531 -131.20046875 35.52789062 -130.2734375 34.76953125 C-123.26385011 29.24878762 -116.31359449 25.22477993 -108 22 C-106.82953125 21.51273438 -105.6590625 21.02546875 -104.453125 20.5234375 C-84.14243438 12.85300806 -60.27824596 15.73299242 -40 22 C-39.95174072 21.39816895 -39.90348145 20.79633789 -39.85375977 20.17626953 C-38.96666836 10.63498017 -35.18151375 5.64855753 -28.0625 -0.65234375 C-20.69504489 -5.46630589 -7.28013777 -4.4919999 0 0 Z " fill="#FEFCFA" transform="translate(325,117)"/>
<path d="M0 0 C1.00699951 0.00757324 2.01399902 0.01514648 3.05151367 0.02294922 C10.47410585 0.18742882 16.85996961 1.05992974 23.5625 4.4375 C24.41457031 4.86160156 25.26664062 5.28570312 26.14453125 5.72265625 C40.05370941 13.39300181 49.97542356 24.93122675 54.91430664 39.96069336 C55.94645895 43.90464257 56.01089136 47.69262546 55.9375 51.75 C55.92589844 52.58031738 55.91429687 53.41063477 55.90234375 54.26611328 C55.51163384 69.04126808 50.42614107 80.55544312 40.1875 91.375 C27.14731933 103.60718324 11.81370833 107.01928001 -5.5234375 106.67578125 C-19.2913315 106.14544302 -31.49824408 100.53834476 -41.4375 91 C-53.97840068 77.38881837 -57.33270948 62.76617539 -56.62988281 44.71630859 C-56.22202478 39.88515777 -54.58553872 35.73357743 -52.4375 31.4375 C-52.12941406 30.78007812 -51.82132813 30.12265625 -51.50390625 29.4453125 C-50.85176327 28.09110172 -50.15222873 26.75974815 -49.4375 25.4375 C-48.7775 25.4375 -48.1175 25.4375 -47.4375 25.4375 C-47.31375 24.839375 -47.19 24.24125 -47.0625 23.625 C-46.4375 21.4375 -46.4375 21.4375 -44.4375 18.4375 C-43.7775 18.4375 -43.1175 18.4375 -42.4375 18.4375 C-42.05078125 17.53837891 -42.05078125 17.53837891 -41.65625 16.62109375 C-37.2512178 8.72874439 -25.58856993 4.20593893 -17.328125 1.8203125 C-11.50468174 0.28834182 -6.00161188 -0.06363739 0 0 Z " fill="#FD5501" transform="translate(250.4375,162.5625)"/>
<path d="M0 0 C9.9 0 19.8 0 30 0 C30.2475 3.2484375 30.2475 3.2484375 30.5 6.5625 C32.10515808 20.66796284 40.3594681 32.68115558 51.04296875 41.73046875 C53.2870901 43.3682984 55.54798249 44.6927497 58 46 C59.0209375 46.55945313 60.041875 47.11890625 61.09375 47.6953125 C74.31003105 53.98181787 90.40840351 54.54844746 104.3125 49.875 C118.7023042 44.21501035 129.5144646 35.7644827 136.25 21.625 C139.11882791 14.70533783 140.53643004 7.31784981 142 0 C151.9 0 161.8 0 172 0 C172 12.98805869 172 12.98805869 170.4375 19.3125 C170.17404785 20.39253296 170.17404785 20.39253296 169.90527344 21.49438477 C166.82619822 33.24015113 160.9381552 42.87451389 153 52 C152.21625 53.03125 151.4325 54.0625 150.625 55.125 C146.81442092 59.29849138 142.521544 62.62628133 138 66 C137.09121094 66.68578125 136.18242187 67.3715625 135.24609375 68.078125 C115.90177306 81.86917812 92.55458947 84.47968514 69.34082031 81.67919922 C64.73919426 80.87581818 60.40195733 79.57581806 56 78 C54.94296875 77.63777344 53.8859375 77.27554688 52.796875 76.90234375 C32.1884955 69.10814894 15.58643429 52.36126184 5.82519531 32.83349609 C3.54726036 27.77216725 2.18500771 22.40952673 1 17 C0.80277344 16.1028125 0.60554687 15.205625 0.40234375 14.28125 C-0.17726454 9.55434744 0 4.76230549 0 0 Z " fill="#FEFCFA" transform="translate(164,305)"/>
<path d="M0 0 C2.75 2.5 2.75 2.5 5 5 C5.556875 5.495 6.11375 5.99 6.6875 6.5 C10.93413322 11.35329511 10.41158557 17.54084035 10.31640625 23.61328125 C9.67946733 30.43088668 6.13514587 34.58138611 1 39 C-5.03921569 43 -5.03921569 43 -8 43 C-8.33 43.99 -8.66 44.98 -9 46 C-18.68034554 45.67240793 -28.029179 44.35808883 -35 37 C-37.8296067 32.31272907 -40 28.54315166 -40 23 C-41.5159375 23.061875 -41.5159375 23.061875 -43.0625 23.125 C-47.08673585 22.99724648 -50.15827252 22.14577837 -54 21 C-55.45476887 20.7865992 -56.91356042 20.59901382 -58.375 20.4375 C-62 20 -62 20 -63 19 C-65.3756852 18.9116033 -67.72208674 18.88469695 -70.09765625 18.90234375 C-70.80651474 18.9037587 -71.51537323 18.90517365 -72.24571228 18.90663147 C-74.51801712 18.91224557 -76.79022475 18.92480037 -79.0625 18.9375 C-80.59960796 18.94251319 -82.13671745 18.94707641 -83.67382812 18.95117188 C-87.44925642 18.96221958 -91.22461171 18.97949359 -95 19 C-89.57587666 15.71232882 -83.20591935 16.57455626 -77.0625 16.5625 C-76.06280182 16.55790771 -76.06280182 16.55790771 -75.04290771 16.55322266 C-62.84493468 16.53856471 -51.65923185 18.39670539 -40 22 C-39.95174072 21.39816895 -39.90348145 20.79633789 -39.85375977 20.17626953 C-38.96666836 10.63498017 -35.18151375 5.64855753 -28.0625 -0.65234375 C-20.69504489 -5.46630589 -7.28013777 -4.4919999 0 0 Z " fill="#FDF6ED" transform="translate(325,117)"/>
<path d="M0 0 C3.30770902 2.25525615 6.02271257 4.229321 7.75 7.875 C8.65569822 13.16742784 8.42632865 17.44430478 6.125 22.3125 C2.61911225 26.09516836 0.15941199 28.61661802 -5.1640625 29.1875 C-14.34509877 29.3662063 -14.34509877 29.3662063 -18.25 26.875 C-22.91907002 21.67232198 -23.71838428 17.51127214 -23.6640625 10.67578125 C-22.99499247 6.15009056 -20.74858713 3.67052178 -17.25 0.875 C-12.08845686 -2.33352682 -5.57446188 -1.92962142 0 0 Z " fill="#FC5502" transform="translate(318.25,123.125)"/>
<path d="M0 0 C9.9 0 19.8 0 30 0 C30.2475 2.31 30.495 4.62 30.75 7 C31.4807493 13.08411111 32.8910724 17.71482308 36 23 C36 23.66 36 24.32 36 25 C35.01 24.67 34.02 24.34 33 24 C33 22.68 33 21.36 33 20 C32.34 20 31.68 20 31 20 C30.79503906 19.02417969 30.59007812 18.04835938 30.37890625 17.04296875 C30.10949219 15.77066406 29.84007812 14.49835938 29.5625 13.1875 C29.29566406 11.92292969 29.02882812 10.65835937 28.75390625 9.35546875 C28.06572114 6.02954587 28.06572114 6.02954587 27 3 C18.75 3 10.5 3 2 3 C2.309375 5.866875 2.61875 8.73375 2.9375 11.6875 C3.03281006 12.58170654 3.12812012 13.47591309 3.22631836 14.3972168 C3.79448279 20.25678565 3.79448279 20.25678565 5 26 C5.66 26.33 6.32 26.66 7 27 C7 28.98 7 30.96 7 33 C4.32571041 30.32571041 3.94569115 27.88408823 2.9375 24.25 C2.59589844 23.03828125 2.25429687 21.8265625 1.90234375 20.578125 C0.05235523 13.24223978 0 7.97079855 0 0 Z " fill="#FEEAD1" transform="translate(164,305)"/>
<path d="M0 0 C0.99969818 -0.00459229 0.99969818 -0.00459229 2.01959229 -0.00927734 C14.21756532 -0.02393529 25.40326815 1.83420539 37.0625 5.4375 C37.0625 3.7875 37.0625 2.1375 37.0625 0.4375 C37.3925 0.4375 37.7225 0.4375 38.0625 0.4375 C38.145 1.571875 38.2275 2.70625 38.3125 3.875 C38.82902951 8.14396447 40.26986914 11.6035425 42.125 15.45703125 C43.0625 17.4375 43.0625 17.4375 44.0625 20.4375 C45.89745217 21.55329767 45.89745217 21.55329767 48.0625 22.4375 C48.701875 22.79070312 49.34125 23.14390625 50 23.5078125 C56.38111268 26.77088149 61.98894028 26.86837673 69.0625 26.4375 C68.5675 27.9225 68.5675 27.9225 68.0625 29.4375 C58.38215446 29.10990793 49.033321 27.79558883 42.0625 20.4375 C39.2328933 15.75022907 37.0625 11.98065166 37.0625 6.4375 C35.5465625 6.499375 35.5465625 6.499375 34 6.5625 C29.97576415 6.43474648 26.90422748 5.58327837 23.0625 4.4375 C21.60773113 4.2240992 20.14893958 4.03651382 18.6875 3.875 C15.0625 3.4375 15.0625 3.4375 14.0625 2.4375 C11.6868148 2.3491033 9.34041326 2.32219695 6.96484375 2.33984375 C6.25598526 2.3412587 5.54712677 2.34267365 4.81678772 2.34413147 C2.54448288 2.34974557 0.27227525 2.36230037 -2 2.375 C-3.53710796 2.38001319 -5.07421745 2.38457641 -6.61132812 2.38867188 C-10.38675642 2.39971958 -14.16211171 2.41699359 -17.9375 2.4375 C-12.51337666 -0.85017118 -6.14341935 0.01205626 0 0 Z " fill="#FDE2C6" transform="translate(247.9375,133.5625)"/>
<path d="M0 0 C1.26601931 3.79805793 0.46897934 5.15820196 -0.875 8.875 C-6.66478173 25.02970565 -6.40599368 45.99572816 0 62 C0.58136719 63.03511719 1.16273438 64.07023437 1.76171875 65.13671875 C3 68 3 68 2.1875 70.375 C1.795625 70.91125 1.40375 71.4475 1 72 C-3.85305933 60.71941552 -6.47036338 51.30774617 -7 39 C-7.05414063 37.7625 -7.10828125 36.525 -7.1640625 35.25 C-7.45134196 22.71416899 -5.18266957 11.41765783 0 0 Z " fill="#E06B2F" transform="translate(169,182)"/>
<path d="M0 0 C8.43331409 5.70488894 13.10325242 15.20549556 15 25 C16.2737063 38.25478192 15.49421691 51.629464 8 63 C6.76028573 59.28085718 7.4434019 58.25662217 8.875 54.6875 C10.37779569 50.78023121 11.54706942 47.18960787 12 43 C12.66 43 13.32 43 14 43 C13.29721588 27.75685468 9.92258815 16.31575644 1.171875 3.8828125 C0 2 0 2 0 0 Z " fill="#E06B2D" transform="translate(291,180)"/>
<path d="M0 0 C9.9 0 19.8 0 30 0 C30 12.375 30 12.375 29 16.6875 C28.814375 17.51636719 28.62875 18.34523438 28.4375 19.19921875 C28.293125 19.79347656 28.14875 20.38773437 28 21 C27.67 21 27.34 21 27 21 C27 16.71 27 12.42 27 8 C27.66 8 28.32 8 29 8 C29 5.69 29 3.38 29 1 C24.05 1 19.1 1 14 1 C14 1.66 14 2.32 14 3 C10.04 3 6.08 3 2 3 C1.67 6.3 1.34 9.6 1 13 C0.34 13 -0.32 13 -1 13 C-1.33 13.66 -1.66 14.32 -2 15 C-1.85737588 13.4372038 -1.71074489 11.87477304 -1.5625 10.3125 C-1.48128906 9.44238281 -1.40007812 8.57226562 -1.31640625 7.67578125 C-1.01156391 5.09779359 -0.50910741 2.54553705 0 0 Z " fill="#FEE7C9" transform="translate(306,305)"/>
<path d="M0 0 C1.01725914 0.00212242 1.01725914 0.00212242 2.05506897 0.00428772 C4.19431203 0.0098288 6.3334455 0.02236972 8.47265625 0.03515625 C9.93424327 0.04017889 11.39583194 0.04474045 12.85742188 0.04882812 C16.41670151 0.0597788 19.97591816 0.0770018 23.53515625 0.09765625 C23.53515625 0.75765625 23.53515625 1.41765625 23.53515625 2.09765625 C24.15003906 2.08605469 24.76492188 2.07445312 25.3984375 2.0625 C26.20667969 2.05347656 27.01492188 2.04445312 27.84765625 2.03515625 C29.04841797 2.01775391 29.04841797 2.01775391 30.2734375 2 C32.53515625 2.09765625 32.53515625 2.09765625 35.53515625 3.09765625 C35.53515625 3.75765625 35.53515625 4.41765625 35.53515625 5.09765625 C28.05516651 4.19489887 28.05516651 4.19489887 24.81176758 3.58837891 C19.51221281 2.79468953 14.21935906 2.91170417 8.86938477 2.91235352 C6.87056371 2.91018115 4.871782 2.89170828 2.87304688 2.87304688 C-4.80166384 2.86155205 -11.97861666 3.37066751 -19.46484375 5.09765625 C-13.68304029 -0.33373488 -7.62233531 -0.03162795 0 0 Z " fill="#E55E1C" transform="translate(242.46484375,131.90234375)"/>
<path d="M0 0 C5.38685894 8.08028841 5.51900104 17.83262118 5.4375 27.25 C5.43282715 28.43279541 5.4281543 29.61559082 5.42333984 30.83422852 C5.24825063 41.21360276 3.96071516 50.72659103 -1 60 C-1.33 60 -1.66 60 -2 60 C-2.20080062 55.68278665 -1.60208231 52.95808571 0 49 C0.45313302 46.33597622 0.72631633 43.69122279 1 41 C2.485 40.505 2.485 40.505 4 40 C3.89000392 36.24940197 3.75940131 32.49979656 3.625 28.75 C3.5940625 27.68652344 3.563125 26.62304688 3.53125 25.52734375 C3.49257813 24.50253906 3.45390625 23.47773438 3.4140625 22.421875 C3.3826416 21.47924805 3.3512207 20.53662109 3.31884766 19.56542969 C2.99044723 16.92313895 2.24573471 15.32115413 1 13 C0.71306612 10.75866742 0.51033409 8.5055681 0.375 6.25 C0.30023438 5.07953125 0.22546875 3.9090625 0.1484375 2.703125 C0.09945313 1.81109375 0.05046875 0.9190625 0 0 Z " fill="#FEEDD7" transform="translate(331,188)"/>
<path d="M0 0 C10.23 0 20.46 0 31 0 C31.47298163 27.19644383 31.47298163 27.19644383 23 39 C22.34 38.67 21.68 38.34 21 38 C21.32613281 37.29617188 21.65226562 36.59234375 21.98828125 35.8671875 C27.09387044 24.33066444 28.85735751 13.56906741 30 1 C20.1 1 10.2 1 0 1 C0 0.67 0 0.34 0 0 Z " fill="#D9692E" transform="translate(306,304)"/>
<path d="M0 0 C0.33 0 0.66 0 1 0 C1.32764185 4.04091613 0.69904125 7.18896278 -0.5 11 C-3.48690908 21.38373581 -2.08850158 32.38710961 -1 43 C-5.10508193 36.84237711 -5.38740119 29.88821319 -5.375 22.6875 C-5.37556396 21.85806885 -5.37612793 21.0286377 -5.37670898 20.17407227 C-5.25824646 13.53952329 -4.00105523 7.96595316 -1 2 C-0.67 1.34 -0.34 0.68 0 0 Z " fill="#E26427" transform="translate(199,192)"/>
<path d="M0 0 C0.33 0.66 0.66 1.32 1 2 C10.9 2 20.8 2 31 2 C31 2.66 31 3.32 31 4 C21.1 4 11.2 4 1 4 C1 7.63 1 11.26 1 15 C-1 13 -1 13 -1.23046875 10.46875 C-1.21628906 9.4890625 -1.20210937 8.509375 -1.1875 7.5 C-1.18105469 6.5203125 -1.17460937 5.540625 -1.16796875 4.53125 C-1 2 -1 2 0 0 Z " fill="#DC6424" transform="translate(163,301)"/>
<path d="M0 0 C-0.639375 0.103125 -1.27875 0.20625 -1.9375 0.3125 C-2.618125 0.539375 -3.29875 0.76625 -4 1 C-4.33 1.99 -4.66 2.98 -5 4 C-11.22863721 4.79093806 -17.35405232 5.10853902 -23.625 5.125 C-24.32874756 5.12951172 -25.03249512 5.13402344 -25.75756836 5.13867188 C-39.72216026 5.09959642 -39.72216026 5.09959642 -44 1 C-41.37623819 0.02823637 -40.31477818 -0.12986379 -37.6784668 0.95776367 C-33.16880334 2.71254931 -28.59906584 2.32777302 -23.8125 2.3125 C-22.82185547 2.32861328 -21.83121094 2.34472656 -20.81054688 2.36132812 C-14.74041818 2.36530854 -9.68863173 1.605911 -3.9675293 -0.45239258 C-2 -1 -2 -1 0 0 Z " fill="#FDE3CB" transform="translate(272,355)"/>
<path d="M0 0 C2.61273988 1.30636994 2.97236124 2.28409758 4 5 C4.125 8.25 4.125 8.25 4 11 C4.66 11 5.32 11 6 11 C6.83956787 17.80649667 7.13223517 24.58604233 7.1875 31.4375 C7.20039063 32.21851074 7.21328125 32.99952148 7.2265625 33.80419922 C7.23348769 37.80090079 6.9508004 40.52895732 5 44 C4.98541748 43.23969482 4.97083496 42.47938965 4.95581055 41.69604492 C4.88053623 38.19273041 4.7841412 34.69028768 4.6875 31.1875 C4.66494141 29.99189453 4.64238281 28.79628906 4.61914062 27.56445312 C4.41623043 20.79463114 3.7128257 14.74549902 1.69921875 8.26757812 C0.85947305 5.54426875 0.38128704 2.82152409 0 0 Z " fill="#E36A2C" transform="translate(331,185)"/>
<path d="M0 0 C0.5775 0.20625 1.155 0.4125 1.75 0.625 C0.43 0.955 -0.89 1.285 -2.25 1.625 C-2.25 2.285 -2.25 2.945 -2.25 3.625 C-3.72566795 4.1148355 -5.20582103 4.5911592 -6.6875 5.0625 C-7.51121094 5.32933594 -8.33492188 5.59617187 -9.18359375 5.87109375 C-17.78744686 7.98643598 -26.50247639 7.74838799 -35.3125 7.6875 C-36.55966797 7.68298828 -37.80683594 7.67847656 -39.09179688 7.67382812 C-42.14458221 7.66213163 -45.19726498 7.64574086 -48.25 7.625 C-48.25 7.295 -48.25 6.965 -48.25 6.625 C-47.54617187 6.6156543 -46.84234375 6.60630859 -46.1171875 6.59667969 C-24.47122811 6.6719139 -24.47122811 6.6719139 -3.9765625 0.47265625 C-2.25 -0.375 -2.25 -0.375 0 0 Z " fill="#D7682D" transform="translate(286.25,291.375)"/>
<path d="M0 0 C1.60031344 3.20062687 0.03173691 5.72271806 -1 9 C-2.65 9.33 -4.3 9.66 -6 10 C-6.33 11.32 -6.66 12.64 -7 14 C-7.99 14 -8.98 14 -10 14 C-10.2475 14.7425 -10.495 15.485 -10.75 16.25 C-12.09147301 19.20124062 -13.60905526 20.84814974 -16 23 C-16.99 22.34 -17.98 21.68 -19 21 C-17.37660195 19.29115995 -15.70680947 17.62553283 -14 16 C-13.34 16 -12.68 16 -12 16 C-11.67 15.01 -11.34 14.02 -11 13 C-10.34 13 -9.68 13 -9 13 C-8.74476563 12.43796875 -8.48953125 11.8759375 -8.2265625 11.296875 C-6.84307219 8.70613518 -5.20061417 6.54892155 -3.375 4.25 C-2.74335938 3.45078125 -2.11171875 2.6515625 -1.4609375 1.828125 C-0.97882813 1.22484375 -0.49671875 0.6215625 0 0 Z " fill="#E8804A" transform="translate(324,347)"/>
<path d="M0 0 C0.33 0 0.66 0 1 0 C1.0825 1.134375 1.165 2.26875 1.25 3.4375 C1.76652951 7.70646447 3.20736914 11.1660425 5.0625 15.01953125 C6 17 6 17 7 20 C8.83495217 21.11579767 8.83495217 21.11579767 11 22 C11.639375 22.35320312 12.27875 22.70640625 12.9375 23.0703125 C19.31861268 26.33338149 24.92644028 26.43087673 32 26 C31.505 27.485 31.505 27.485 31 29 C21.31965446 28.67240793 11.970821 27.35808883 5 20 C2.1703933 15.31272907 0 11.54315166 0 6 C-0.66 5.67 -1.32 5.34 -2 5 C-1.34 5 -0.68 5 0 5 C0 3.35 0 1.7 0 0 Z " fill="#CBA38A" transform="translate(285,134)"/>
<path d="M0 0 C-0.33 0.99 -0.66 1.98 -1 3 C-8.56519485 4.49699969 -15.92502455 5.23169299 -23.625 5.3125 C-24.40665527 5.32990234 -25.18831055 5.34730469 -25.99365234 5.36523438 C-31.58922288 5.36033993 -31.58922288 5.36033993 -33.73583984 3.47729492 C-34.1530127 2.9897876 -34.57018555 2.50228027 -35 2 C-34.01773438 2.01571045 -34.01773438 2.01571045 -33.015625 2.03173828 C-30.01045668 2.07365359 -27.00535016 2.09943809 -24 2.125 C-22.97003906 2.14175781 -21.94007813 2.15851563 -20.87890625 2.17578125 C-13.67171193 2.22168695 -7.02535599 0 0 0 Z " fill="#FDDEC3" transform="translate(272,266)"/>
<path d="M0 0 C0.33 0 0.66 0 1 0 C1.27471741 7.82944611 -0.22367382 13.87544486 -3.86328125 20.81640625 C-4.68337801 22.39178112 -5.46829299 23.98564526 -6.23046875 25.58984375 C-10.19700543 33.90126368 -10.19700543 33.90126368 -14 37 C-14.66 36.67 -15.32 36.34 -16 36 C-15.55269531 35.40574219 -15.10539062 34.81148438 -14.64453125 34.19921875 C-6.84680704 23.50852223 -3.06754841 12.69862219 0 0 Z " fill="#DE6A2F" transform="translate(335,229)"/>
<path d="M0 0 C0.6875 1.7421875 0.6875 1.7421875 1 4 C-1.51825694 8.39038217 -4.99089359 12.10402519 -9.9375 13.5 C-10.948125 13.665 -11.95875 13.83 -13 14 C-13 14.99 -13 15.98 -13 17 C-12.319375 17.639375 -11.63875 18.27875 -10.9375 18.9375 C-10.298125 19.618125 -9.65875 20.29875 -9 21 C-9.37890625 23.12890625 -9.37890625 23.12890625 -10 25 C-11.01170618 23.75945552 -12.00897797 22.5071298 -13 21.25 C-13.556875 20.55390625 -14.11375 19.8578125 -14.6875 19.140625 C-16 17 -16 17 -16 13 C-14.54462432 12.16151196 -13.08559627 11.32936066 -11.625 10.5 C-10.81289063 10.0359375 -10.00078125 9.571875 -9.1640625 9.09375 C-7 8 -7 8 -5 8 C-4.731875 7.4225 -4.46375 6.845 -4.1875 6.25 C-2.98280141 3.9674132 -1.59201885 2.0262058 0 0 Z " fill="#EA7D43" transform="translate(333,147)"/>
<path d="M0 0 C-0.66 0.33 -1.32 0.66 -2 1 C-2.72316406 0.69578125 -3.44632812 0.3915625 -4.19140625 0.078125 C-7.5898867 -1.22643773 -10.30451172 -1.26577845 -13.9375 -1.25 C-15.12214844 -1.25515625 -16.30679687 -1.2603125 -17.52734375 -1.265625 C-23.33449505 -0.82143345 -27.11850568 0.66205701 -31.375 4.625 C-32.06335938 5.25664063 -32.75171875 5.88828125 -33.4609375 6.5390625 C-33.96882813 7.02117187 -34.47671875 7.50328125 -35 8 C-35.33 7.01 -35.66 6.02 -36 5 C-35.43410156 4.59007813 -34.86820312 4.18015625 -34.28515625 3.7578125 C-33.18494141 2.94957031 -33.18494141 2.94957031 -32.0625 2.125 C-31.33160156 1.59132813 -30.60070312 1.05765625 -29.84765625 0.5078125 C-27.88901765 -0.88012104 -27.88901765 -0.88012104 -27 -3 C-18.23362774 -5.07434735 -7.74916915 -4.81705109 0 0 Z " fill="#E9804A" transform="translate(325,116)"/>
<path d="M0 0 C-4.60490525 4.60490525 -12.73801659 4.13131514 -18.890625 4.23046875 C-21.34378865 4.22652898 -23.79695584 4.21203044 -26.25 4.1875 C-27.49007812 4.18685547 -28.73015625 4.18621094 -30.0078125 4.18554688 C-35.47102049 4.159112 -40.61803848 4.01227325 -46 3 C-46 2.67 -46 2.34 -46 2 C-45.0620459 2.01047363 -44.1240918 2.02094727 -43.15771484 2.03173828 C-39.65768955 2.06594612 -36.1578435 2.09096002 -32.65771484 2.10986328 C-31.14661851 2.11988339 -29.63554138 2.13350321 -28.12451172 2.15087891 C-25.94493858 2.17530392 -23.76562316 2.18652307 -21.5859375 2.1953125 C-19.62213135 2.21102295 -19.62213135 2.21102295 -17.61865234 2.22705078 C-11.37215506 1.835117 -6.39012318 -0.22034908 0 0 Z " fill="#FEE1C3" transform="translate(276,383)"/>
<path d="M0 0 C5.6 2.2 5.6 2.2 7 5 C5.80375 4.855625 4.6075 4.71125 3.375 4.5625 C2.64410156 4.47484375 1.91320312 4.3871875 1.16015625 4.296875 C-0.63546604 4.0500987 -2.41574265 3.69464374 -4.1875 3.3125 C-7.44570665 2.95047704 -9.02810792 3.74867702 -12 5 C-14.3125 4.625 -14.3125 4.625 -16 4 C-10.23174054 0.50868506 -6.76618503 -0.65845425 0 0 Z " fill="#E26F32" transform="translate(315,122)"/>
<path d="M0 0 C4.62 0 9.24 0 14 0 C14 0.66 14 1.32 14 2 C10.04 2 6.08 2 2 2 C1.67 5.3 1.34 8.6 1 12 C0.34 12 -0.32 12 -1 12 C-1.33 12.66 -1.66 13.32 -2 14 C-1.85795259 12.41632253 -1.71119847 10.83306682 -1.5625 9.25 C-1.48128906 8.36828125 -1.40007812 7.4865625 -1.31640625 6.578125 C-1 4 -1 4 0 0 Z " fill="#FCF1DE" transform="translate(306,306)"/>
<path d="M0 0 C-0.31946283 8.11435581 -1.01419904 18.49928695 -6.6328125 24.84375 C-7.08398438 25.2253125 -7.53515625 25.606875 -8 26 C-7.4833346 22.79667454 -6.61582697 19.90678352 -5.5 16.875 C-3.91388065 12.32352707 -3.52841254 7.98354629 -3.30859375 3.1875 C-3.20675781 2.465625 -3.10492188 1.74375 -3 1 C-1 0 -1 0 0 0 Z " fill="#E46526" transform="translate(306,305)"/>
<path d="M0 0 C0.6875 1.6875 0.6875 1.6875 1 4 C-0.55431791 7.18635171 -2.37599478 9.62590004 -5 12 C-5 11.34 -5 10.68 -5 10 C-5.495 10.33 -5.99 10.66 -6.5 11 C-10.09090894 12.43636358 -13.14456127 12.12851462 -17 12 C-17.33 11.34 -17.66 10.68 -18 10 C-17.41992188 9.97421875 -16.83984375 9.9484375 -16.2421875 9.921875 C-10.78405202 9.52557473 -7.28570111 8.67345809 -3 5 C-1.13689678 2.39975951 -1.13689678 2.39975951 0 0 Z " fill="#FCDFC6" transform="translate(325,142)"/>
<path d="M0 0 C10.05445748 1.26786414 17.87074258 7.09544697 25 14 C24.01 14.33 23.02 14.66 22 15 C21.4225 14.29875 20.845 13.5975 20.25 12.875 C16.07246126 8.62438478 10.33042085 6.47392738 5 4 C5 3.34 5 2.68 5 2 C3.35 2 1.7 2 0 2 C0 1.34 0 0.68 0 0 Z " fill="#DE6525" transform="translate(266,165)"/>
<path d="M0 0 C0.71285156 0.45890625 1.42570313 0.9178125 2.16015625 1.390625 C12.1690607 7.97652743 12.1690607 7.97652743 23 13 C18.18237289 14.59495138 14.46020576 13.10221167 10 11 C7.1875 8.4375 7.1875 8.4375 5 6 C4.2575 5.649375 3.515 5.29875 2.75 4.9375 C2.1725 4.628125 1.595 4.31875 1 4 C0.390625 1.94140625 0.390625 1.94140625 0 0 Z " fill="#E36427" transform="translate(194,368)"/>
<path d="M0 0 C0.33 0 0.66 0 1 0 C1.02578125 0.85980469 1.0515625 1.71960938 1.078125 2.60546875 C1.44501458 10.25178107 2.57799812 16.91673716 5.0625 24.16015625 C5.92387873 26.76941597 6.52392926 29.29730674 7 32 C3.06153846 28.67692308 3.06153846 28.67692308 2.75 25.25 C2.8325 24.5075 2.915 23.765 3 23 C2.34 23 1.68 23 1 23 C0.15808218 20.0751367 -0.11819313 17.49258344 -0.09765625 14.453125 C-0.09443359 13.60878906 -0.09121094 12.76445312 -0.08789062 11.89453125 C-0.07951172 11.02183594 -0.07113281 10.14914063 -0.0625 9.25 C-0.05798828 8.36183594 -0.05347656 7.47367188 -0.04882812 6.55859375 C-0.037074 4.37232671 -0.02064249 2.18619821 0 0 Z " fill="#FEE2C6" transform="translate(193,210)"/>
<path d="M0 0 C3.06220726 5.68695634 4.26062635 10.93773226 4.625 17.375 C4.69976562 18.62023437 4.77453125 19.86546875 4.8515625 21.1484375 C4.90054688 22.08945313 4.94953125 23.03046875 5 24 C0.32376412 16.98564618 -0.41199432 8.23988631 0 0 Z " fill="#FEEBD3" transform="translate(164,220)"/>
<path d="M0 0 C23.78877436 -0.41277905 23.78877436 -0.41277905 34 2 C34 2.66 34 3.32 34 4 C26.49411765 3.09411765 26.49411765 3.09411765 23.375 2.5 C18.80096094 1.82236458 14.24127363 1.63835071 9.625 1.4375 C8.69816406 1.39431641 7.77132812 1.35113281 6.81640625 1.30664062 C4.54439706 1.20123814 2.27229075 1.09911394 0 1 C0 0.67 0 0.34 0 0 Z " fill="#E17239" transform="translate(244,133)"/>
<path d="M0 0 C0.33 0 0.66 0 1 0 C1 1.65 1 3.3 1 5 C0.01 5.33 -0.98 5.66 -2 6 C-3.20882096 8.00016466 -3.20882096 8.00016466 -4 10 C-4.66 10 -5.32 10 -6 10 C-6.33 10.99 -6.66 11.98 -7 13 C-8.65 13 -10.3 13 -12 13 C-11.319375 12.34 -10.63875 11.68 -9.9375 11 C-6.93093537 8.01066497 -4.19821266 4.80268054 -1.453125 1.57421875 C-0.97359375 1.05472656 -0.4940625 0.53523438 0 0 Z " fill="#E46C2C" transform="translate(318,266)"/>
<path d="M0 0 C2 1.3125 2 1.3125 4 4 C4.83941241 9.17368609 4.98982424 14.21344159 2 18.6875 C1.34 19.450625 0.68 20.21375 0 21 C-0.6875 19.25 -0.6875 19.25 -1 17 C-0.01439389 15.65599167 0.98758315 14.32392972 2 13 C2.72045367 9.84881675 2.72045367 9.84881675 3 7 C2.01 6.67 1.02 6.34 0 6 C0 4.02 0 2.04 0 0 Z " fill="#E16C32" transform="translate(322,127)"/>
<path d="M0 0 C0.66 0 1.32 0 2 0 C1.72285156 1.02738281 1.44570312 2.05476562 1.16015625 3.11328125 C-0.93838622 11.07619104 -2.64961379 18.73088536 -3 27 C-3.33 27 -3.66 27 -4 27 C-4.52519057 8.38491194 -4.52519057 8.38491194 0 0 Z " fill="#FFF8E9" transform="translate(196,194)"/>
<path d="M0 0 C0.66 0 1.32 0 2 0 C1.4943565 5.53359156 0.04383132 9.56030575 -2.5625 14.4375 C-2.89185547 15.07365234 -3.22121094 15.70980469 -3.56054688 16.36523438 C-4.36453248 17.91494576 -5.18097666 19.45818322 -6 21 C-6.33 19.68 -6.66 18.36 -7 17 C-6.34 17 -5.68 17 -5 17 C-4.34 13.7 -3.68 10.4 -3 7 C-2.01 6.67 -1.02 6.34 0 6 C0 4.02 0 2.04 0 0 Z " fill="#FDE0C7" transform="translate(331,326)"/>
<path d="M0 0 C4.37195176 5.73818669 8.37739009 11.76106071 12 18 C11.34 18 10.68 18 10 18 C10 17.34 10 16.68 10 16 C8.68 16 7.36 16 6 16 C5.938125 15.278125 5.87625 14.55625 5.8125 13.8125 C5.18993221 10.76999685 5.18993221 10.76999685 2.4375 8.5625 C0 6 0 6 -0.3125 2.6875 C-0.209375 1.800625 -0.10625 0.91375 0 0 Z " fill="#E67135" transform="translate(172,252)"/>
<path d="M0 0 C0.66 0 1.32 0 2 0 C1.49144231 7.73358411 0.12498182 13.89883116 -5 20 C-4.46792908 14.78570499 -3.08613955 10.78073646 -1 6 C-0.60235737 4.01178687 -0.24544834 2.01267638 0 0 Z " fill="#E26321" transform="translate(303,223)"/>
<path d="M0 0 C0.66 0 1.32 0 2 0 C1.43555175 4.34863652 -0.15427964 7.17827655 -2.5625 10.8125 C-3.52349609 12.27623047 -3.52349609 12.27623047 -4.50390625 13.76953125 C-4.99761719 14.50558594 -5.49132812 15.24164063 -6 16 C-6.70703125 14.390625 -6.70703125 14.390625 -7 12 C-5.63671875 8.984375 -5.63671875 8.984375 -3.6875 5.75 C-3.05199219 4.67234375 -2.41648437 3.5946875 -1.76171875 2.484375 C-1.18035156 1.66453125 -0.59898437 0.8446875 0 0 Z " fill="#FEE8D2" transform="translate(327,248)"/>
<path d="M0 0 C0 0.66 0 1.32 0 2 C-0.66 2 -1.32 2 -2 2 C-2.66 3.65 -3.32 5.3 -4 7 C-4.99 7 -5.98 7 -7 7 C-7 7.66 -7 8.32 -7 9 C-7.66 9 -8.32 9 -9 9 C-9 9.66 -9 10.32 -9 11 C-10.32 11.33 -11.64 11.66 -13 12 C-12.67 11.01 -12.34 10.02 -12 9 C-11.34 9 -10.68 9 -10 9 C-9.79375 8.443125 -9.5875 7.88625 -9.375 7.3125 C-7.41177961 4.01072025 -4.06489071 0 0 0 Z " fill="#E77C47" transform="translate(218,172)"/>
<path d="M0 0 C-1.72343755 0.84511824 -3.45404053 1.67563354 -5.1875 2.5 C-6.15042969 2.9640625 -7.11335937 3.428125 -8.10546875 3.90625 C-10.98922693 4.99592921 -12.95354861 5.22277524 -16 5 C-16 5.66 -16 6.32 -16 7 C-17.32 6.67 -18.64 6.34 -20 6 C-5.36814394 -1.57617843 -5.36814394 -1.57617843 0 0 Z " fill="#E16A2D" transform="translate(238,165)"/>
<path d="M0 0 C-1.32 0.33 -2.64 0.66 -4 1 C-4 1.66 -4 2.32 -4 3 C-7.96 3.99 -11.92 4.98 -16 6 C-15 3 -15 3 -12.63671875 1.796875 C-11.66347656 1.45140625 -10.69023437 1.1059375 -9.6875 0.75 C-8.23923828 0.21632813 -8.23923828 0.21632813 -6.76171875 -0.328125 C-3.97753166 -1.00546613 -2.64521065 -0.98017307 0 0 Z " fill="#E46728" transform="translate(288,292)"/>
<path d="M0 0 C0 0.99 0 1.98 0 3 C-2.53716674 5.26287844 -5.17140458 7.11426972 -8 9 C-10.1875 8.625 -10.1875 8.625 -12 8 C-10.37615858 6.85252535 -8.75088944 5.7070709 -7.125 4.5625 C-6.22007812 3.92441406 -5.31515625 3.28632813 -4.3828125 2.62890625 C-2 1 -2 1 0 0 Z " fill="#E46C2D" transform="translate(304,369)"/>
<path d="M0 0 C1.95273962 2.92910944 2.75396363 5.08132291 3.6875 8.4375 C3.95949219 9.38496094 4.23148437 10.33242187 4.51171875 11.30859375 C4.99803744 13.98918237 4.89369149 15.46287583 4 18 C3.34 16.35 2.68 14.7 2 13 C1.67 13 1.34 13 1 13 C0.67 8.71 0.34 4.42 0 0 Z " fill="#FCE0C7" transform="translate(331,188)"/>
<path d="M0 0 C3.91939465 3.80411834 7.49102731 7.81576108 11 12 C6.25 10.125 6.25 10.125 4 9 C4 8.01 4 7.02 4 6 C2.68 5.67 1.36 5.34 0 5 C0 3.35 0 1.7 0 0 Z " fill="#E46425" transform="translate(181,355)"/>
<path d="M0 0 C1.32 0.33 2.64 0.66 4 1 C2.21190303 2.17213045 0.41940875 3.33755526 -1.375 4.5 C-2.37273437 5.1496875 -3.37046875 5.799375 -4.3984375 6.46875 C-7 8 -7 8 -9 8 C-9 7.01 -9 6.02 -9 5 C-7.68 5 -6.36 5 -5 5 C-5 4.34 -5 3.68 -5 3 C-3.68 3 -2.36 3 -1 3 C-0.67 2.01 -0.34 1.02 0 0 Z " fill="#FEE8D1" transform="translate(300,280)"/>
<path d="M0 0 C0.625 1.8125 0.625 1.8125 1 4 C0.01 5.485 0.01 5.485 -1 7 C-1.02415584 9.9824577 -1.02415584 9.9824577 -0.625 13.1875 C-0.51414062 14.27417969 -0.40328125 15.36085937 -0.2890625 16.48046875 C-0.19367188 17.31191406 -0.09828125 18.14335937 0 19 C-2 18 -2 18 -3 15 C-3.14359334 13.19127624 -3.22046121 11.37667423 -3.25 9.5625 C-3.27578125 8.61503906 -3.3015625 7.66757813 -3.328125 6.69140625 C-2.95241828 3.6097166 -2.0484735 2.28027445 0 0 Z " fill="#DA6C32" transform="translate(298,127)"/>
<path d="M0 0 C0.5775 0.20625 1.155 0.4125 1.75 0.625 C-2.11643892 3.33365129 -4.73500906 4.01344085 -9.4375 3.9375 C-10.48292969 3.93363281 -11.52835937 3.92976562 -12.60546875 3.92578125 C-15.25 3.625 -15.25 3.625 -17.25 1.625 C-16.50234375 1.64820313 -15.7546875 1.67140625 -14.984375 1.6953125 C-13.99953125 1.71335938 -13.0146875 1.73140625 -12 1.75 C-11.02546875 1.77320313 -10.0509375 1.79640625 -9.046875 1.8203125 C-5.59881966 1.57952651 -3.32590624 -0.55431771 0 0 Z " fill="#DE672C" transform="translate(319.25,148.375)"/>
<path d="M0 0 C1.32 0.33 2.64 0.66 4 1 C2.58367866 2.10460959 1.16692736 3.20866788 -0.25 4.3125 C-1.03890625 4.92738281 -1.8278125 5.54226562 -2.640625 6.17578125 C-4.7462297 7.80379018 -6.86609343 9.40935863 -9 11 C-8.61651573 8.49669994 -8.33158839 7.29420343 -6.40625 5.5859375 C-5.46265625 4.98652344 -5.46265625 4.98652344 -4.5 4.375 C-1.73725876 2.66531892 -1.73725876 2.66531892 0 0 Z " fill="#EB7236" transform="translate(298,113)"/>
<path d="M0 0 C1.60031344 3.20062687 0.03173691 5.72271806 -1 9 C-2.32 9.33 -3.64 9.66 -5 10 C-4.49701212 5.59885603 -2.91227269 3.28804981 0 0 Z " fill="#E86624" transform="translate(324,347)"/>
<path d="M0 0 C0.33 0 0.66 0 1 0 C1.10957031 0.65226562 1.21914062 1.30453125 1.33203125 1.9765625 C2.27044606 7.14928804 3.4424254 11.34986436 6 16 C6 16.66 6 17.32 6 18 C5.01 17.67 4.02 17.34 3 17 C3 15.68 3 14.36 3 13 C2.34 13 1.68 13 1 13 C0.1276588 10.00519083 -0.10829766 7.36424089 -0.0625 4.25 C-0.05347656 3.45078125 -0.04445312 2.6515625 -0.03515625 1.828125 C-0.02355469 1.22484375 -0.01195312 0.6215625 0 0 Z " fill="#FBD6B8" transform="translate(194,312)"/>
<path d="M0 0 C0.99 0.33 1.98 0.66 3 1 C0.69 4.96 -1.62 8.92 -4 13 C-5 9 -5 9 -4 6 C-3 5 -2 4 -1 3 C-0.67 2.01 -0.34 1.02 0 0 Z " fill="#E26727" transform="translate(175,169)"/>
<path d="M0 0 C-1.98 0.99 -1.98 0.99 -4 2 C-4 2.66 -4 3.32 -4 4 C-7.47325181 5.1577506 -10.36067448 5.06866652 -14 5 C-11.75043698 2.75043698 -9.93676737 1.99489035 -7 0.8125 C-6.113125 0.44769531 -5.22625 0.08289063 -4.3125 -0.29296875 C-2 -1 -2 -1 0 0 Z " fill="#E46D31" transform="translate(288,380)"/>
<path d="M0 0 C1.13732426 3.40401948 0.83989957 5.77456664 0.0625 9.25 C-0.13214844 10.14203125 -0.32679688 11.0340625 -0.52734375 11.953125 C-0.68332031 12.62859375 -0.83929688 13.3040625 -1 14 C-1.66 14 -2.32 14 -3 14 C-2.48594831 9.03083364 -1.76615118 4.70973649 0 0 Z " fill="#FDE5CB" transform="translate(168,188)"/>
<path d="M0 0 C0.99 0 1.98 0 3 0 C7.59225513 10.37357631 7.59225513 10.37357631 7 16 C5.20607816 13.30911724 4.10715694 10.98862913 2.9375 8 C2.59589844 7.13375 2.25429688 6.2675 1.90234375 5.375 C1.22732926 3.59833847 0.60101337 1.80304012 0 0 Z " fill="#FEE4CB" transform="translate(299,189)"/>
<path d="M0 0 C-1.59915881 0.69906942 -3.20455045 1.38389468 -4.8125 2.0625 C-5.70582031 2.44535156 -6.59914063 2.82820313 -7.51953125 3.22265625 C-10 4 -10 4 -13 3 C-11.73102432 0.46204864 -10.78585978 0.27198938 -8.1875 -0.75 C-7.50042969 -1.03359375 -6.81335938 -1.3171875 -6.10546875 -1.609375 C-3.42425634 -2.10681701 -2.27247745 -1.40944669 0 0 Z " fill="#FEE4CB" transform="translate(290,379)"/>
<path d="M0 0 C0.8971875 0.309375 0.8971875 0.309375 1.8125 0.625 C-4.33035714 6.19642857 -4.33035714 6.19642857 -9.1875 6.625 C-3.65359043 -0.62632979 -3.65359043 -0.62632979 0 0 Z " fill="#FDE1C9" transform="translate(301.1875,115.375)"/>
<path d="M0 0 C0.99 0.33 1.98 0.66 3 1 C3.33 2.65 3.66 4.3 4 6 C4.66 6 5.32 6 6 6 C6.33 8.31 6.66 10.62 7 13 C3.67006966 9.17058011 1.94675475 4.62477778 0 0 Z " fill="#E06729" transform="translate(324,172)"/>
<path d="M0 0 C0 0.66 0 1.32 0 2 C-2.99106784 4.36503039 -5.02861582 5.91553181 -8.875 6.25 C-9.57625 6.1675 -10.2775 6.085 -11 6 C-3.8 0 -3.8 0 0 0 Z " fill="#FBD8BA" transform="translate(284,348)"/>
<path d="M0 0 C0.33 0.99 0.66 1.98 1 3 C0.01 3.33 -0.98 3.66 -2 4 C-2 4.99 -2 5.98 -2 7 C-4.375 8.75 -4.375 8.75 -7 10 C-7.66 9.67 -8.32 9.34 -9 9 C-6.03 6.03 -3.06 3.06 0 0 Z " fill="#FEE3CA" transform="translate(295,248)"/>
<path d="M0 0 C2.54938804 1.27469402 2.74579613 2.49159226 4 5 C4.8353125 5.7425 4.8353125 5.7425 5.6875 6.5 C6.120625 6.995 6.55375 7.49 7 8 C6.58203125 10.09375 6.58203125 10.09375 6 12 C4.98829382 10.75945552 3.99102203 9.5071298 3 8.25 C2.443125 7.55390625 1.88625 6.8578125 1.3125 6.140625 C0 4 0 4 0 0 Z " fill="#DD6426" transform="translate(317,160)"/>
<path d="M0 0 C1.98 0.66 3.96 1.32 6 2 C6 2.66 6 3.32 6 4 C6.66 4 7.32 4 8 4 C7.67 5.32 7.34 6.64 7 8 C5.83035398 6.8572081 4.66435444 5.71068285 3.5 4.5625 C2.8503125 3.92441406 2.200625 3.28632813 1.53125 2.62890625 C0 1 0 1 0 0 Z " fill="#FEE3CB" transform="translate(287,175)"/>
<path d="M0 0 C1.27875 0.103125 2.5575 0.20625 3.875 0.3125 C4.95394531 0.39951172 4.95394531 0.39951172 6.0546875 0.48828125 C8 1 8 1 10 4 C2.25 3.125 2.25 3.125 0 2 C0 1.34 0 0.68 0 0 Z " fill="#E86625" transform="translate(312,123)"/>
<path d="M0 0 C0.33 0 0.66 0 1 0 C0.609375 6.0546875 0.609375 6.0546875 0 8 C-2.046875 9.2578125 -2.046875 9.2578125 -4 10 C-3.52449439 8.51965236 -3.04448784 7.04074979 -2.5625 5.5625 C-2.29566406 4.73878906 -2.02882812 3.91507813 -1.75390625 3.06640625 C-1 1 -1 1 0 0 Z " fill="#FBD8BA" transform="translate(173,177)"/>
<path d="M0 0 C3.36241563 0.45438049 6.04009971 1.35561095 9 3 C9 3.33 9 3.66 9 4 C3.58461538 4.36923077 3.58461538 4.36923077 0.625 2.5 C0.08875 2.005 -0.4475 1.51 -1 1 C-0.67 0.67 -0.34 0.34 0 0 Z " fill="#FEEBD6" transform="translate(229,355)"/>
<path d="M0 0 C0.33 0.99 0.66 1.98 1 3 C-0.98 4.32 -2.96 5.64 -5 7 C-5.66 6.67 -6.32 6.34 -7 6 C-4.69 4.02 -2.38 2.04 0 0 Z " fill="#FEEAD2" transform="translate(196,151)"/>
<path d="M0 0 C1.65 0 3.3 0 5 0 C3 1.5 3 1.5 1 3 C0.29875 3.556875 -0.4025 4.11375 -1.125 4.6875 C-3 6 -3 6 -5 6 C-4.67 4.68 -4.34 3.36 -4 2 C-2.68 2 -1.36 2 0 2 C0 1.34 0 0.68 0 0 Z " fill="#E2611E" transform="translate(203,143)"/>
<path d="M0 0 C-3.07692746 2.6815279 -5.19734663 3.42087807 -9.25 3.6875 C-10.14203125 3.75324219 -11.0340625 3.81898438 -11.953125 3.88671875 C-12.62859375 3.92410156 -13.3040625 3.96148437 -14 4 C-5.43337646 -0.31047865 -5.43337646 -0.31047865 0 0 Z " fill="#F45809" transform="translate(278,385)"/>
<path d="M0 0 C0.33 0.66 0.66 1.32 1 2 C-0.32 3.32 -1.64 4.64 -3 6 C-3.99 5.34 -4.98 4.68 -6 4 C-3.94766315 1.7522025 -2.99332739 0.9977758 0 0 Z " fill="#E86727" transform="translate(311,364)"/>
<path d="M0 0 C1.14926266 0.95421808 2.29430541 1.91352045 3.4375 2.875 C4.07558594 3.40867187 4.71367187 3.94234375 5.37109375 4.4921875 C7 6 7 6 8 8 C6.0625 7.6875 6.0625 7.6875 4 7 C3.67 6.01 3.34 5.02 3 4 C2.01 3.67 1.02 3.34 0 3 C0 2.01 0 1.02 0 0 Z " fill="#DD682B" transform="translate(184,270)"/>
<path d="M0 0 C2.64465038 3.1254959 3.84414715 6.08788267 5 10 C4.34 10 3.68 10 3 10 C0.52653696 7.52653696 0.01686856 6.29238832 -0.1875 2.75 C-0.125625 1.8425 -0.06375 0.935 0 0 Z " fill="#E06B2E" transform="translate(172,252)"/>
<path d="M0 0 C1.39195915 4.17587745 -0.17676781 6.13474776 -2 10 C-2.33 10 -2.66 10 -3 10 C-3.125 4.25 -3.125 4.25 -2 2 C-1.34 2 -0.68 2 0 2 C0 1.34 0 0.68 0 0 Z " fill="#FDE4CB" transform="translate(332,238)"/>
<path d="M0 0 C1.90389849 2.85584773 2.69462177 4.9311762 3.625 8.1875 C4.01558594 9.53908203 4.01558594 9.53908203 4.4140625 10.91796875 C4.60742188 11.60503906 4.80078125 12.29210937 5 13 C2.53686261 11.17251097 1.16571382 9.77023784 0.51171875 6.73046875 C0.27481707 4.48520654 0.09638651 2.25544422 0 0 Z " fill="#FBD6B6" transform="translate(195,229)"/>
<path d="M0 0 C0.66 0 1.32 0 2 0 C0.515 5.445 0.515 5.445 -1 11 C-1.33 11 -1.66 11 -2 11 C-2.28571429 3.57142857 -2.28571429 3.57142857 0 0 Z " fill="#FFECD6" transform="translate(196,194)"/>
<path d="M0 0 C2.31 0.66 4.62 1.32 7 2 C7.33 3.65 7.66 5.3 8 7 C6.66382648 6.02471263 5.3311249 5.04466681 4 4.0625 C3.2575 3.51722656 2.515 2.97195312 1.75 2.41015625 C1.1725 1.94480469 0.595 1.47945313 0 1 C0 0.67 0 0.34 0 0 Z " fill="#EB7A42" transform="translate(325,118)"/>
<path d="M0 0 C4.31392226 0.4793247 6.16569547 1.7457985 9 5 C4.98525763 5 3.18024863 3.33218233 0 1 C0 0.67 0 0.34 0 0 Z " fill="#FDDAC1" transform="translate(196,369)"/>
<path d="M0 0 C1.98 0 3.96 0 6 0 C6.66 1.65 7.32 3.3 8 5 C4.62496331 3.8141763 2.35277269 2.72426311 0 0 Z " fill="#E57031" transform="translate(214,346)"/>
<path d="M0 0 C0.66 0.33 1.32 0.66 2 1 C-3.75 6 -3.75 6 -6 6 C-6 5.01 -6 4.02 -6 3 C-4.03533587 1.93224776 -2.03144641 0.93446535 0 0 Z " fill="#E2672B" transform="translate(288,342)"/>
<path d="M0 0 C0.33 0 0.66 0 1 0 C1.125 6.625 1.125 6.625 0 10 C-0.66 10 -1.32 10 -2 10 C-1.125 2.25 -1.125 2.25 0 0 Z " fill="#E06A2B" transform="translate(335,320)"/>
<path d="M0 0 C0.33 0 0.66 0 1 0 C1 1.65 1 3.3 1 5 C0.01 5.33 -0.98 5.66 -2 6 C-2.33 6.99 -2.66 7.98 -3 9 C-3.33 8.34 -3.66 7.68 -4 7 C-3.22265625 5.2734375 -3.22265625 5.2734375 -2.0625 3.375 C-1.381875 2.26125 -0.70125 1.1475 0 0 Z " fill="#EB6822" transform="translate(318,266)"/>
<path d="M0 0 C0.66 0 1.32 0 2 0 C2 0.66 2 1.32 2 2 C2.99 2 3.98 2 5 2 C5.66 3.65 6.32 5.3 7 7 C6.01 7 5.02 7 4 7 C2.02 3.535 2.02 3.535 0 0 Z " fill="#E46524" transform="translate(202,243)"/>
<path d="M0 0 C1.32 0.33 2.64 0.66 4 1 C2.37660195 2.70884005 0.70680947 4.37446717 -1 6 C-1.66 6 -2.32 6 -3 6 C-3 5.01 -3 4.02 -3 3 C-2.01 3 -1.02 3 0 3 C0 2.01 0 1.02 0 0 Z " fill="#E16522" transform="translate(287,252)"/>
<path d="M0 0 C0.33 0 0.66 0 1 0 C1.125 5.75 1.125 5.75 0 8 C-0.99 8 -1.98 8 -3 8 C-1.125 2.25 -1.125 2.25 0 0 Z " fill="#E37034" transform="translate(199,192)"/>
<path d="M0 0 C0 0.66 0 1.32 0 2 C-0.66 2 -1.32 2 -2 2 C-2.66 3.65 -3.32 5.3 -4 7 C-4.66 7 -5.32 7 -6 7 C-5.37162381 3.35541809 -4.14650034 0 0 0 Z " fill="#E86E32" transform="translate(218,172)"/>
<path d="M0 0 C1.65 0 3.3 0 5 0 C2.38485683 2.12038635 -0.19637616 4.13091744 -3 6 C-3 4.68 -3 3.36 -3 2 C-2.01 2 -1.02 2 0 2 C0 1.34 0 0.68 0 0 Z " fill="#FEEDDA" transform="translate(215,170)"/>
<path d="M0 0 C0.625 1.8125 0.625 1.8125 1 4 C0.01 5.485 0.01 5.485 -1 7 C-2.32 6.67 -3.64 6.34 -5 6 C-3.35 4.02 -1.7 2.04 0 0 Z " fill="#EA864D" transform="translate(333,147)"/>
<path d="M0 0 C2.25245881 2.68841859 3.88213958 4.64641875 5 8 C3.68 7.67 2.36 7.34 1 7 C0.67 4.69 0.34 2.38 0 0 Z " fill="#FCDEC3" transform="translate(200,330)"/>
<path d="M0 0 C-0.33 0.99 -0.66 1.98 -1 3 C-2.84765625 3.73046875 -2.84765625 3.73046875 -5.0625 4.1875 C-5.79597656 4.34605469 -6.52945312 4.50460937 -7.28515625 4.66796875 C-8.13400391 4.83232422 -8.13400391 4.83232422 -9 5 C-6.45523312 2.20075644 -3.92372883 0 0 0 Z " fill="#DF6E31" transform="translate(297,286)"/>
<path d="M0 0 C5.75 1.75 5.75 1.75 8 4 C5.36 3.67 2.72 3.34 0 3 C0 2.01 0 1.02 0 0 Z " fill="#FFEED7" transform="translate(220,262)"/>
<path d="M0 0 C2.31 0.33 4.62 0.66 7 1 C6.67 2.65 6.34 4.3 6 6 C3.97945196 4.35830472 1.97956942 2.69088222 0 1 C0 0.67 0 0.34 0 0 Z " fill="#E66121" transform="translate(208,251)"/>
<path d="M0 0 C0.75 1.75 0.75 1.75 1 4 C-0.9375 6.25 -0.9375 6.25 -3 8 C-2.45276317 4.62537285 -1.9451 2.91765 0 0 Z " fill="#E55E1C" transform="translate(324,140)"/>
</svg>
